<svg width="66" height="66" viewBox="0 0 66 66" fill="none" xmlns="http://www.w3.org/2000/svg">
<g id="credit-card 1">
<g id="Credit Card-Payment-Quality-Badges-Seo">
<path id="Vector" d="M48.4688 30.9375H44.3438C43.5232 30.9375 42.7363 31.2634 42.1561 31.8436C41.5759 32.4238 41.25 33.2107 41.25 34.0312C41.25 34.8518 41.5759 35.6387 42.1561 36.2189C42.7363 36.7991 43.5232 37.125 44.3438 37.125H48.4688C49.2893 37.125 50.0762 36.7991 50.6564 36.2189C51.2366 35.6387 51.5625 34.8518 51.5625 34.0312C51.5625 33.2107 51.2366 32.4238 50.6564 31.8436C50.0762 31.2634 49.2893 30.9375 48.4688 30.9375ZM48.4688 35.0625H44.3438C44.0702 35.0625 43.8079 34.9539 43.6145 34.7605C43.4211 34.5671 43.3125 34.3048 43.3125 34.0312C43.3125 33.7577 43.4211 33.4954 43.6145 33.302C43.8079 33.1086 44.0702 33 44.3438 33H48.4688C48.7423 33 49.0046 33.1086 49.198 33.302C49.3914 33.4954 49.5 33.7577 49.5 34.0312C49.5 34.3048 49.3914 34.5671 49.198 34.7605C49.0046 34.9539 48.7423 35.0625 48.4688 35.0625Z" fill="#4285F4"/>
<path id="Vector_2" d="M28.875 35.0625H30.9375V37.125H28.875V35.0625Z" fill="#4285F4"/>
<path id="Vector_3" d="M28.875 30.9375H39.1875V33H28.875V30.9375Z" fill="#4285F4"/>
<path id="Vector_4" d="M33 35.0625H35.0625V37.125H33V35.0625Z" fill="#4285F4"/>
<path id="Vector_5" d="M37.125 35.0625H39.1875V37.125H37.125V35.0625Z" fill="#4285F4"/>
<path id="Vector_6" d="M14.4375 18.5625C12.7287 18.5609 11.0617 19.0904 9.66706 20.0777C8.27241 21.0651 7.21908 22.4614 6.6528 24.0736C6.08652 25.6858 6.03528 27.4342 6.50617 29.0768C6.97707 30.7194 7.94681 32.175 9.28124 33.2423V42.2813C9.28124 42.4728 9.33457 42.6605 9.43525 42.8234C9.53594 42.9863 9.68 43.118 9.8513 43.2036C10.0226 43.2893 10.2144 43.3255 10.4051 43.3083C10.5958 43.2911 10.778 43.2212 10.9312 43.1063L14.4375 40.4766L17.9437 43.1063C18.122 43.2406 18.3393 43.313 18.5625 43.3125C18.836 43.3125 19.0983 43.2039 19.2917 43.0105C19.4851 42.8171 19.5937 42.5548 19.5937 42.2813V33.2423C20.9282 32.175 21.8979 30.7194 22.3688 29.0768C22.8397 27.4342 22.7885 25.6858 22.2222 24.0736C21.6559 22.4614 20.6026 21.0651 19.2079 20.0777C17.8133 19.0904 16.1462 18.5609 14.4375 18.5625ZM17.5312 40.2188L15.0562 38.3625C14.8777 38.2286 14.6606 38.1563 14.4375 38.1563C14.2144 38.1563 13.9972 38.2286 13.8187 38.3625L11.3437 40.2188V34.4551C13.3267 35.2649 15.5482 35.2649 17.5312 34.4551V40.2188ZM14.4375 33C13.2137 33 12.0174 32.6371 10.9999 31.9572C9.98237 31.2773 9.1893 30.311 8.72098 29.1804C8.25267 28.0497 8.13013 26.8056 8.36888 25.6054C8.60763 24.4051 9.19693 23.3026 10.0623 22.4373C10.9276 21.5719 12.0301 20.9826 13.2304 20.7439C14.4306 20.5051 15.6747 20.6277 16.8053 21.096C17.936 21.5643 18.9023 22.3574 19.5822 23.3749C20.2621 24.3924 20.625 25.5887 20.625 26.8125C20.6234 28.453 19.9709 30.0259 18.8109 31.1859C17.6509 32.3459 16.078 32.9984 14.4375 33Z" fill="#4285F4"/>
<path id="Vector_7" d="M14.4375 22.6875C13.6217 22.6875 12.8241 22.9294 12.1458 23.3827C11.4674 23.8359 10.9387 24.4802 10.6265 25.2339C10.3143 25.9877 10.2326 26.8171 10.3918 27.6172C10.5509 28.4174 10.9438 29.1524 11.5207 29.7293C12.0976 30.3062 12.8326 30.6991 13.6328 30.8582C14.4329 31.0174 15.2623 30.9357 16.0161 30.6235C16.7698 30.3113 17.4141 29.7826 17.8673 29.1042C18.3206 28.4259 18.5625 27.6283 18.5625 26.8125C18.5625 25.7185 18.1279 24.6693 17.3543 23.8957C16.5807 23.1221 15.5315 22.6875 14.4375 22.6875ZM14.4375 28.875C14.0296 28.875 13.6308 28.754 13.2916 28.5274C12.9525 28.3008 12.6881 27.9787 12.532 27.6018C12.3759 27.2249 12.3351 26.8102 12.4146 26.4101C12.4942 26.01 12.6906 25.6425 12.9791 25.3541C13.2675 25.0656 13.635 24.8692 14.0351 24.7896C14.4352 24.71 14.8499 24.7509 15.2268 24.907C15.6037 25.0631 15.9258 25.3275 16.1524 25.6666C16.379 26.0058 16.5 26.4046 16.5 26.8125C16.5 27.3595 16.2827 27.8841 15.8959 28.2709C15.5091 28.6577 14.9845 28.875 14.4375 28.875Z" fill="#4285F4"/>
<path id="Vector_8" d="M59.7197 6.28031C59.5006 5.09683 58.8745 4.02727 57.9497 3.25694C57.0249 2.48662 55.8598 2.06406 54.6562 2.0625H7.21875C5.85123 2.0625 4.53972 2.60575 3.57273 3.57273C2.60575 4.53972 2.0625 5.85123 2.0625 7.21875V50.5312C2.06406 51.7348 2.48662 52.8999 3.25694 53.8247C4.02727 54.7495 5.09683 55.3756 6.28031 55.5947C6.49936 56.7782 7.12552 57.8477 8.05029 58.6181C8.97506 59.3884 10.1402 59.8109 11.3438 59.8125H41.0438L43.725 64.4531L45.5091 63.4219L41.6625 56.76C41.5276 56.5216 41.4919 56.2397 41.5634 55.9753C41.6348 55.7109 41.8075 55.4852 42.0441 55.3472C42.161 55.2792 42.2902 55.2352 42.4243 55.2176C42.5584 55.2 42.6946 55.2092 42.8251 55.2447C42.9556 55.2802 43.0777 55.3413 43.1844 55.4244C43.2911 55.5075 43.3802 55.6109 43.4466 55.7288L45.5091 59.2969C45.625 59.4926 45.8011 59.6456 46.0111 59.7329C46.2212 59.8203 46.4538 59.8374 46.6744 59.7816C46.8941 59.7224 47.0881 59.5922 47.2262 59.4113C47.3642 59.2303 47.4385 59.0088 47.4375 58.7812V46.4062C47.4375 46.1327 47.5462 45.8704 47.7395 45.677C47.9329 45.4837 48.1952 45.375 48.4688 45.375C48.7423 45.375 49.0046 45.4837 49.198 45.677C49.3913 45.8704 49.5 46.1327 49.5 46.4062V55.6875C49.5 55.961 49.6087 56.2233 49.802 56.4167C49.9954 56.6101 50.2577 56.7188 50.5312 56.7188C50.8048 56.7188 51.0671 56.6101 51.2605 56.4167C51.4538 56.2233 51.5625 55.961 51.5625 55.6875V52.5938C51.5804 52.3261 51.6948 52.0741 51.8844 51.8844C52.0741 51.6948 52.3261 51.5804 52.5938 51.5625C52.8673 51.5625 53.1296 51.6712 53.323 51.8645C53.5163 52.0579 53.625 52.3202 53.625 52.5938V55.6875C53.625 55.961 53.7337 56.2233 53.927 56.4167C54.1204 56.6101 54.3827 56.7188 54.6562 56.7188C54.9298 56.7188 55.1921 56.6101 55.3855 56.4167C55.5788 56.2233 55.6875 55.961 55.6875 55.6875V53.625C55.6875 53.3515 55.7962 53.0892 55.9895 52.8958C56.1829 52.7024 56.4452 52.5938 56.7188 52.5938C56.9923 52.5938 57.2546 52.7024 57.448 52.8958C57.6413 53.0892 57.75 53.3515 57.75 53.625V56.7188C57.75 56.9923 57.8587 57.2546 58.052 57.448C58.2454 57.6413 58.5077 57.75 58.7812 57.75C59.0548 57.75 59.3171 57.6413 59.5105 57.448C59.7038 57.2546 59.8125 56.9923 59.8125 56.7188V54.6562C59.8125 54.3827 59.9212 54.1204 60.1145 53.927C60.3079 53.7337 60.5702 53.625 60.8438 53.625C61.1173 53.625 61.3796 53.7337 61.573 53.927C61.7663 54.1204 61.875 54.3827 61.875 54.6562V63.9375H63.9375V11.3438C63.9359 10.1402 63.5134 8.97506 62.7431 8.05029C61.9727 7.12552 60.9032 6.49936 59.7197 6.28031ZM11.3438 57.75C10.7058 57.7467 10.0844 57.547 9.56404 57.1779C9.04369 56.8089 8.64968 56.2885 8.43563 55.6875H39.5278C39.3954 56.3925 39.512 57.1215 39.8578 57.75H11.3438ZM57.75 50.5312C57.75 50.5931 57.7294 50.655 57.7294 50.7272C57.4064 50.6038 57.0644 50.5375 56.7188 50.5312C56.1869 50.5297 55.664 50.6685 55.2028 50.9334C54.9236 50.4944 54.5381 50.1328 54.082 49.8823C53.626 49.6317 53.1141 49.5002 52.5938 49.5C52.241 49.5022 51.8915 49.5686 51.5625 49.6959V46.4062C51.5625 45.5857 51.2365 44.7988 50.6564 44.2186C50.0762 43.6385 49.2893 43.3125 48.4688 43.3125C47.6482 43.3125 46.8613 43.6385 46.2811 44.2186C45.701 44.7988 45.375 45.5857 45.375 46.4062V53.625H44.1787C43.7059 53.3294 43.1618 53.1675 42.6043 53.1566C42.0468 53.1457 41.4968 53.2862 41.0128 53.5631L40.92 53.625H7.21875C6.39899 53.6226 5.6135 53.2958 5.03384 52.7162C4.45418 52.1365 4.12745 51.351 4.125 50.5312V12.375H57.75V50.5312ZM57.75 10.3125H4.125V7.21875C4.12745 6.39899 4.45418 5.6135 5.03384 5.03384C5.6135 4.45418 6.39899 4.12745 7.21875 4.125H54.6562C55.476 4.12745 56.2615 4.45418 56.8412 5.03384C57.4208 5.6135 57.7476 6.39899 57.75 7.21875V10.3125ZM61.875 51.7481C61.5152 51.6127 61.132 51.5503 60.7478 51.5645C60.3636 51.5786 59.9861 51.6691 59.6372 51.8306C59.7524 51.4071 59.8114 50.9702 59.8125 50.5312V8.43563C60.4135 8.64968 60.9339 9.04369 61.3029 9.56404C61.672 10.0844 61.8717 10.7058 61.875 11.3438V51.7481Z" fill="#4285F4"/>
<path id="Vector_9" d="M52.5938 18.5625H27.8438C27.024 18.5649 26.2385 18.8917 25.6588 19.4713C25.0792 20.051 24.7524 20.8365 24.75 21.6562V38.1562C24.7524 38.976 25.0792 39.7615 25.6588 40.3412C26.2385 40.9208 27.024 41.2476 27.8438 41.25H52.5938C53.4135 41.2476 54.199 40.9208 54.7787 40.3412C55.3583 39.7615 55.6851 38.976 55.6875 38.1562V21.6562C55.6851 20.8365 55.3583 20.051 54.7787 19.4713C54.199 18.8917 53.4135 18.5649 52.5938 18.5625ZM53.625 38.1562C53.625 38.4298 53.5164 38.6921 53.323 38.8855C53.1296 39.0789 52.8673 39.1875 52.5938 39.1875H27.8438C27.5702 39.1875 27.3079 39.0789 27.1145 38.8855C26.9211 38.6921 26.8125 38.4298 26.8125 38.1562V28.875H53.625V38.1562ZM53.625 26.8125H26.8125V24.75H53.625V26.8125ZM53.625 22.6875H26.8125V21.6562C26.8125 21.3827 26.9211 21.1204 27.1145 20.927C27.3079 20.7336 27.5702 20.625 27.8438 20.625H52.5938C52.8673 20.625 53.1296 20.7336 53.323 20.927C53.5164 21.1204 53.625 21.3827 53.625 21.6562V22.6875Z" fill="#4285F4"/>
<path id="Vector_10" d="M6.1875 6.1875H8.25V8.25H6.1875V6.1875Z" fill="#4285F4"/>
<path id="Vector_11" d="M10.3125 6.1875H12.375V8.25H10.3125V6.1875Z" fill="#4285F4"/>
<path id="Vector_12" d="M14.4375 6.1875H16.5V8.25H14.4375V6.1875Z" fill="#4285F4"/>
</g>
</g>
</svg>
