<svg width="44" height="69" viewBox="0 0 44 69" fill="none" xmlns="http://www.w3.org/2000/svg">
<g id="Frame 38">
<g id="Group">
<path id="Vector" d="M24.5619 32.375H14.4567C13.8985 32.375 13.446 32.8276 13.446 33.3858C13.446 33.944 13.8985 34.3965 14.4567 34.3965H24.5619C25.1201 34.3965 25.5726 33.944 25.5726 33.3858C25.5726 32.8276 25.1201 32.375 24.5619 32.375Z" fill="#4285F4"/>
<path id="Vector_2" d="M14.4567 30.3312H18.1982C18.7564 30.3312 19.209 29.8786 19.209 29.3204C19.209 28.7622 18.7564 28.3097 18.1982 28.3097H14.4567C13.8985 28.3097 13.446 28.7622 13.446 29.3204C13.446 29.8786 13.8985 30.3312 14.4567 30.3312Z" fill="#4285F4"/>
<path id="Vector_3" d="M24.5209 36.287H14.4567C13.8985 36.287 13.446 36.7395 13.446 37.2977C13.446 37.8559 13.8985 38.3085 14.4567 38.3085H24.5209C25.0791 38.3085 25.5316 37.8559 25.5316 37.2977C25.5316 36.7395 25.0791 36.287 24.5209 36.287Z" fill="#4285F4"/>
<path id="Vector_4" d="M43.9721 21.5665C43.9721 18.1133 41.945 15.1253 39.0186 13.7279V4.37988C39.0186 1.96475 37.0537 0 34.6387 0H4.37988C1.96488 0 0 1.96475 0 4.37988V12.4354C0 12.9936 0.452543 13.4461 1.01074 13.4461C1.56894 13.4461 2.02148 12.9936 2.02148 12.4354V4.37988C2.02148 3.07939 3.07953 2.02148 4.37988 2.02148H10.8946L11.4594 4.47233C11.9203 6.47198 13.6753 7.86843 15.7274 7.86843H23.291C25.3431 7.86843 27.0981 6.47185 27.559 4.47233L28.124 2.02148H34.6387C35.939 2.02148 36.9971 3.07939 36.9971 4.37988V13.0546C36.4451 12.9441 35.8747 12.8852 35.2908 12.8852C30.5039 12.8852 26.6095 16.7795 26.6095 21.5664C26.6095 21.7919 26.6209 22.0145 26.6378 22.2357H8.15628C6.95862 22.2357 5.98413 23.21 5.98413 24.4078V42.3741C5.98413 43.5718 6.95849 44.5462 8.15628 44.5462H22.7281L24.2204 47.1309C24.4662 47.5566 24.9241 47.8209 25.4156 47.8209C25.9071 47.8209 26.365 47.5565 26.6108 47.1308L28.1031 44.5462H30.8621C32.0598 44.5462 33.0343 43.5719 33.0343 42.3741V29.9484C33.7542 30.1425 34.5104 30.2477 35.2908 30.2477C35.8747 30.2477 36.4451 30.1888 36.9971 30.0783V64.6201C36.9971 65.9206 35.939 66.9785 34.6387 66.9785H32.1669L31.602 64.5277C31.1411 62.528 29.3861 61.1314 27.334 61.1314H21.759C21.2008 61.1314 20.7482 61.584 20.7482 62.1422C20.7482 62.7004 21.2008 63.1529 21.759 63.1529H27.334C28.4389 63.1529 29.3839 63.9049 29.6321 64.9817L30.0925 66.9785H8.9262L9.38643 64.9817C9.63453 63.9049 10.5796 63.1529 11.6846 63.1529H17.7162C18.2744 63.1529 18.7269 62.7004 18.7269 62.1422C18.7269 61.584 18.2744 61.1314 17.7162 61.1314H11.6846C9.63251 61.1314 7.87745 62.528 7.41656 64.5277L6.85162 66.9785H4.37988C3.07953 66.9785 2.02148 65.9206 2.02148 64.6201V16.4783C2.02148 15.9201 1.56894 15.4676 1.01074 15.4676C0.452543 15.4676 0 15.9201 0 16.4783V64.6201C0 67.0353 1.96488 69 4.37988 69H34.6387C37.0537 69 39.0186 67.0353 39.0186 64.6201V29.4052C41.945 28.0079 43.9721 25.0198 43.9721 21.5665ZM25.5892 4.01831C25.3411 5.09508 24.396 5.84708 23.291 5.84708H15.7276C14.6226 5.84708 13.6776 5.09508 13.4294 4.01831L12.9692 2.02148H26.0495L25.5892 4.01831ZM31.0128 42.3742C31.0128 42.4572 30.9453 42.5249 30.8621 42.5249H27.5896C27.1863 42.5249 26.8104 42.742 26.6091 43.091L25.4156 45.1582L24.2222 43.0913C24.0206 42.7419 23.6448 42.5249 23.2414 42.5249H8.15628C8.07327 42.5249 8.00562 42.4574 8.00562 42.3742V24.4079C8.00562 24.3249 8.07313 24.2573 8.15628 24.2573H27.0384C27.715 26.3271 29.1494 28.0558 31.0128 29.116V42.3742ZM35.2908 28.2264C31.6186 28.2264 28.631 25.2388 28.631 21.5665C28.631 17.8943 31.6184 14.9068 35.2908 14.9068C38.963 14.9068 41.9507 17.8944 41.9507 21.5665C41.9507 25.2388 38.963 28.2264 35.2908 28.2264Z" fill="#4285F4"/>
<path id="Vector_5" d="M35.7193 19.1063H34.1632C33.605 19.1063 33.1525 19.5588 33.1525 20.117C33.1525 20.6752 33.605 21.1277 34.1632 21.1277H34.7086V23.665C34.7086 24.2232 35.1611 24.6757 35.7193 24.6757C36.2775 24.6757 36.7301 24.2232 36.7301 23.665V20.117C36.7301 19.5588 36.2775 19.1063 35.7193 19.1063Z" fill="#4285F4"/>
</g>
</g>
</svg>
