<svg width="60" height="60" viewBox="0 0 60 60" fill="none" xmlns="http://www.w3.org/2000/svg">
<g id="settings 1" clip-path="url(#clip0_2_98)">
<g id="Group">
<g id="Group_2">
<g id="Group_3">
<path id="Vector" d="M57.7251 21.4079L50.8053 20.388C50.2104 19.033 49.4554 17.7031 48.5179 16.3531L51.1503 9.61339C51.6378 8.33844 51.1353 6.93354 49.9879 6.29103L40.0508 0.386311C38.8983 -0.313621 37.4009 -0.0312106 36.5659 1.05132L32.2536 6.71863C30.5836 6.54367 29.4137 6.54367 27.7438 6.71863L23.429 1.04382C22.614 -0.0136333 21.1666 -0.301082 19.9591 0.378811L10.0396 6.27357C8.90963 6.906 8.39473 8.32848 8.85221 9.62089L11.4796 16.3431C10.5721 17.6306 9.80713 18.9854 9.19462 20.3854L2.29736 21.4029C0.987498 21.5729 0 22.7305 0 24.0928V35.9148C0 37.2797 0.987498 38.4371 2.27487 38.5997L9.19462 39.6196C9.78955 40.9746 10.5446 42.3045 11.482 43.6545L8.84963 50.3942C8.36215 51.6716 8.86463 53.0767 10.0121 53.7166L19.9867 59.6464C20.4117 59.8839 20.8716 59.9989 21.3241 59.9989C22.129 59.9989 22.9115 59.6364 23.4365 58.9539L27.7464 53.2866C29.0763 53.4316 30.9313 53.4316 32.2587 53.2866L36.5735 58.9614C37.3859 60.0164 38.8334 60.3064 40.0434 59.6289L42.9182 57.919C43.5107 57.5665 43.7057 56.7991 43.3532 56.2066C43.0007 55.6141 42.2333 55.4167 41.6408 55.7716L38.5585 57.444L33.8162 51.2068C33.5462 50.8518 33.1112 50.6718 32.6613 50.7243C31.1463 50.9193 28.8614 50.9193 27.3464 50.7243C26.8989 50.6743 26.4615 50.8518 26.1915 51.2068L21.2417 57.4815L11.2671 51.5518C11.1721 51.4968 11.1571 51.3768 11.1896 51.2943L14.0645 43.9347C14.2195 43.5347 14.162 43.0872 13.9095 42.7422C12.747 41.1448 11.8746 39.5998 11.2446 38.0199C11.0796 37.6049 10.7046 37.3098 10.2646 37.2449L2.64739 36.1224C2.63989 36.1224 2.51486 35.9124 2.50736 35.9124V24.0904L2.64739 23.8779L10.2646 22.7554C10.7071 22.6904 11.0796 22.3954 11.2446 21.9805C11.8995 20.3356 12.792 18.7506 13.902 17.2707C14.1594 16.9257 14.222 16.4707 14.0645 16.0683L11.2021 8.74846C11.167 8.64347 11.1996 8.49101 11.2971 8.43594L21.4517 2.56122L26.1939 8.7985C26.4639 9.15098 26.8989 9.33098 27.3489 9.28094C29.4288 9.01341 30.5837 9.01341 32.6637 9.28094C33.1162 9.33344 33.5487 9.15345 33.8187 8.7985L38.7685 2.5263L48.7406 8.45351C48.8356 8.50847 48.8531 8.62847 48.8206 8.71096L45.9458 16.0706C45.7907 16.4706 45.8483 16.9181 46.1008 17.2631C47.2633 18.8605 48.1357 20.4054 48.7657 21.9854C48.9307 22.4004 49.3056 22.6954 49.7457 22.7603L57.3629 23.8828C57.3704 23.8853 57.4954 24.0953 57.5029 24.0953V35.9173L57.3629 36.1272L52.4781 36.8472C51.7932 36.9472 51.3207 37.5822 51.4231 38.2647C51.5231 38.9471 52.1531 39.4271 52.8406 39.3196L57.7004 38.6021C59.0103 38.4347 60.0003 37.2797 60.0003 35.9148V24.0928C59.9975 22.7305 59.0126 21.5729 57.7251 21.4079Z" fill="#4285F4"/>
<path id="Vector_2" d="M44.5682 35.2987C43.1733 33.9038 42.4133 32.1338 42.4883 30.4414C42.6209 27.3565 41.3309 24.4116 38.5435 21.4393C36.1586 18.8969 32.9562 17.4545 29.8414 17.4995C27.064 17.5345 24.4167 18.5044 22.1842 20.3068C21.8668 20.5643 21.6943 20.9593 21.7217 21.3667C21.7517 21.7742 21.9767 22.1417 22.3267 22.3492L29.9664 26.9315C29.739 29.2289 28.3815 31.2438 26.3041 32.3188L19.4644 28.214C19.087 27.9865 18.562 28.004 18.172 28.2164C17.792 28.4239 17.5471 28.8114 17.522 29.2414C17.317 32.7263 18.5194 36.0386 20.9043 38.5686C23.2592 41.0635 26.5741 42.4934 30.0015 42.4934C30.9215 42.4934 31.8439 42.3734 32.8564 42.1159L48.8133 58.0728C50.0507 59.3127 51.6956 59.9928 53.4481 59.9928C57.0605 59.9928 59.9978 57.0529 59.9978 53.4405C59.9978 51.6906 59.3153 50.0456 58.0778 48.8081L44.5682 35.2987ZM53.4478 57.4952H53.4428C52.3604 57.4952 51.3429 57.0728 50.5779 56.3078L34.1061 39.836C33.8661 39.5985 33.5487 39.471 33.2212 39.471C33.0987 39.471 32.9787 39.486 32.8662 39.521C31.7962 39.8435 30.8888 39.9935 30.0038 39.9935C27.219 39.9935 24.6365 38.8785 22.7267 36.8536C21.3117 35.3537 20.4192 33.5087 20.1168 31.5213L25.609 34.8162C25.9765 35.0361 26.4265 35.0511 26.8114 34.8636L27.3388 34.6011C30.5212 33.0087 32.5011 29.8064 32.5011 26.2465C32.5011 25.8064 32.2686 25.399 31.8936 25.174L25.2939 21.2142C26.7113 20.4342 28.2662 20.0167 29.8737 19.9967C32.2862 19.9617 34.816 21.1142 36.7209 23.1466C39.0558 25.639 40.0958 27.9215 39.9908 30.3313C39.8858 32.7213 40.9108 35.1761 42.8007 37.0661L56.3101 50.5781C57.0776 51.343 57.4975 52.3605 57.4975 53.4454C57.5001 55.6779 55.6852 57.4952 53.4478 57.4952Z" fill="#4285F4"/>
</g>
</g>
</g>
</g>
<defs>
<clipPath id="clip0_2_98">
<rect width="60" height="60" fill="white"/>
</clipPath>
</defs>
</svg>
